<svg xmlns="http://www.w3.org/2000/svg" viewBox="0 0 581.67 127.41"><defs><style>.cls-1{fill:#3c3c3b;}.cls-2{fill:#b0cc3c;}</style></defs><g id="Livello_2" data-name="Livello 2"><g id="Livello_1-2" data-name="Livello 1"><path class="cls-1" d="M57.74,0V49.82A29.46,29.46,0,0,0,49,42.26a32.61,32.61,0,0,0-16.36-4.51A31.59,31.59,0,0,0,9.52,47.27,31.24,31.24,0,0,0,0,70.08,31.23,31.23,0,0,0,9.52,92.89a31.53,31.53,0,0,0,23.07,9.52,32.11,32.11,0,0,0,16-4.44,31.26,31.26,0,0,0,9.12-7.75V101h7.18V0ZM32.46,44.41A24.46,24.46,0,0,1,50.4,52.13,25.09,25.09,0,0,1,58,70.21a24.64,24.64,0,0,1-7.59,18,24.71,24.71,0,0,1-18,7.59,23.79,23.79,0,0,1-17.81-7.58,25.62,25.62,0,0,1,.07-36.11A23.79,23.79,0,0,1,32.46,44.41Z"/><path class="cls-1" d="M126.73,47.27a32.64,32.64,0,0,0-46.08,0,30.84,30.84,0,0,0-9.59,22.55A31.92,31.92,0,0,0,80.5,92.61h0a30.48,30.48,0,0,0,22.63,9.8h1.18a30.3,30.3,0,0,0,22.63-9.73,32,32,0,0,0,9.3-22.79A31.06,31.06,0,0,0,126.73,47.27Zm2.33,22.88a25,25,0,0,1-7.41,18,23.78,23.78,0,0,1-17.8,7.58A25.94,25.94,0,0,1,78.24,70.21a24.74,24.74,0,0,1,7.61-18.08,24.44,24.44,0,0,1,17.93-7.72,23.83,23.83,0,0,1,17.81,7.65A25.14,25.14,0,0,1,129.06,70.15Z"/><path class="cls-1" d="M197.79,47.27a31.59,31.59,0,0,0-23.07-9.52,32.59,32.59,0,0,0-16.36,4.51,29.34,29.34,0,0,0-8.79,7.56V39.19h-7.18V127.1h7.18V90.22A31.26,31.26,0,0,0,158.69,98a32.08,32.08,0,0,0,16,4.44,32.5,32.5,0,0,0,32.59-32.33A31.28,31.28,0,0,0,197.79,47.27ZM174.91,95.75a24.4,24.4,0,0,1-18-7.59,24.64,24.64,0,0,1-7.59-18,25,25,0,0,1,7.6-18.08,24.45,24.45,0,0,1,17.94-7.72,23.8,23.8,0,0,1,17.8,7.65,25.6,25.6,0,0,1,.06,36.11A23.76,23.76,0,0,1,174.91,95.75Z"/><path class="cls-1" d="M268.85,47.27a31.55,31.55,0,0,0-23.07-9.52,32.61,32.61,0,0,0-16.36,4.51,29.46,29.46,0,0,0-8.79,7.56V39.19h-7.18V127.1h7.18V90.22A31.41,31.41,0,0,0,229.75,98a32.08,32.08,0,0,0,16,4.44,31.55,31.55,0,0,0,23.07-9.52,31.23,31.23,0,0,0,9.52-22.81A31.26,31.26,0,0,0,268.85,47.27Zm2.34,22.88a25,25,0,0,1-7.41,18A23.78,23.78,0,0,1,246,95.75a24.42,24.42,0,0,1-18-7.59,24.64,24.64,0,0,1-7.59-18A25.09,25.09,0,0,1,228,52.13a24.46,24.46,0,0,1,17.94-7.72,23.79,23.79,0,0,1,17.8,7.65A25.15,25.15,0,0,1,271.19,70.15Z"/><rect class="cls-1" x="286.21" y="39.32" width="7.18" height="61.65"/><path class="cls-1" d="M289.8,17.9c-3.36,0-5.29,1.83-5.29,5s1.93,5,5.29,5,5.29-1.83,5.29-5S293.16,17.9,289.8,17.9Z"/><path class="cls-2" d="M356.9,47.27a32.64,32.64,0,0,0-46.08,0,30.84,30.84,0,0,0-9.59,22.55,31.92,31.92,0,0,0,9.44,22.79,30.48,30.48,0,0,0,22.63,9.8h1.18a30.27,30.27,0,0,0,22.63-9.74,32,32,0,0,0,9.3-22.78A31.06,31.06,0,0,0,356.9,47.27Zm2.33,22.88a25,25,0,0,1-7.41,18A24.09,24.09,0,0,1,334,95.75a24.4,24.4,0,0,1-18-7.59,24.65,24.65,0,0,1-7.6-18A25,25,0,0,1,316,52.13,24.44,24.44,0,0,1,334,44.41a23.83,23.83,0,0,1,17.81,7.65A25.14,25.14,0,0,1,359.23,70.15Z"/><polygon class="cls-1" points="412.5 39.19 370.97 39.19 370.97 45.85 399.71 45.85 366.27 100.97 410.93 100.97 410.93 94.32 378.92 94.32 412.5 39.19"/><path class="cls-1" d="M458.52,92.5a26.26,26.26,0,0,1-13.29,3.38c-4.45,0-9.17-1.82-14.06-5.43L472,50.16l-1-1.07c-6.71-7.44-14.87-11.21-24.24-11.21a32.42,32.42,0,0,0-23.65,9.52A30.84,30.84,0,0,0,413.55,70a31.58,31.58,0,0,0,9.64,22.8c6.4,6.5,14,9.79,22.69,9.79h1.17c9.2,0,17.13-3.59,23.58-10.68l.39-.43V79.29l-2.74,4.06A29.63,29.63,0,0,1,458.52,92.5Zm3.42-42.3L426.26,85.63a25.32,25.32,0,0,1-5.53-16.07c0-6.62,2.49-12.31,7.6-17.43s10.88-7.59,17.35-7.59A25.78,25.78,0,0,1,461.94,50.2Z"/><path class="cls-1" d="M514.31,42.23a21,21,0,0,0-12.65-4.48,23.38,23.38,0,0,0-11.86,3.08,21.76,21.76,0,0,0-5.06,4V39.19h-7.18V101h7.18V60.28a15,15,0,0,1,4.84-11.08,15.33,15.33,0,0,1,11.16-4.79c4.24,0,8,1.74,11.61,5.31l2.56,2.56v-9.6Z"/><path class="cls-2" d="M572.15,47.27a32.64,32.64,0,0,0-46.08,0,30.84,30.84,0,0,0-9.58,22.55,31.93,31.93,0,0,0,9.43,22.79,30.48,30.48,0,0,0,22.63,9.8h1.18a30.29,30.29,0,0,0,22.64-9.74,32,32,0,0,0,9.3-22.78A31,31,0,0,0,572.15,47.27Zm2.34,22.88a25,25,0,0,1-7.41,18,23.79,23.79,0,0,1-17.81,7.58,24.4,24.4,0,0,1-18-7.59,24.64,24.64,0,0,1-7.59-18,25,25,0,0,1,7.6-18.08,24.46,24.46,0,0,1,17.94-7.72A23.8,23.8,0,0,1,567,52.06,25.15,25.15,0,0,1,574.49,70.15Z"/><rect class="cls-1" x="302.76" y="121.41" width="62.05" height="6"/><rect class="cls-1" x="518.05" y="13.11" width="62.05" height="6"/></g></g></svg>